PathFileType	4	(X/Y/Z)	Patient4_TMGait_0pt5_02_left_43.trc.trc
DataRate	CameraRate	NumFrames	NumMarkers	Units	OrigDataRate	OrigDataStartFrame	OrigNumFrames
80.924855491330	80.924855491330	5	33	mm	80.924855491330	89	       141
Frame#	Time	Sacral			L.Shoulder			Chest			R.Shoulder			Neck			R.ASIS			L.ASIS			R.Thigh.Superior			R.Thigh.Lateral			R.Thigh.Inferior			R.Patella			L.Thigh.Superior			L.Thigh.Lateral			L.Thigh.Inferior			L.Patella			L.Shank.Superior			L.Shank.Lateral			L.Shank.Inferior			R.Shank.Superior			R.Shank.Lateral			R.Shank.Inferior			R.Heel			R.Midfoot.Superior			R.Midfoot.Lateral			R.Toe			L.Heel			L.Midfoot.Lateral			L.Midfoot.Superior			L.Toe			L.Elbow			L.Wrist			R.Elbow			R.Wrist			
		X1	Y1	Z1	X2	Y2	Z2	X3	Y3	Z3	X4	Y4	Z4	X5	Y5	Z5	X6	Y6	Z6	X7	Y7	Z7	X8	Y8	Z8	X9	Y9	Z9	X10	Y10	Z10	X11	Y11	Z11	X12	Y12	Z12	X13	Y13	Z13	X14	Y14	Z14	X15	Y15	Z15	X16	Y16	Z16	X17	Y17	Z17	X18	Y18	Z18	X19	Y19	Z19	X20	Y20	Z20	X21	Y21	Z21	X22	Y22	Z22	X23	Y23	Z23	X24	Y24	Z24	X25	Y25	Z25	X26	Y26	Z26	X27	Y27	Z27	X28	Y28	Z28	X29	Y29	Z29	X30	Y30	Z30	X31	Y31	Z31	X32	Y32	Z32	X33	Y33	Z33	

89	56.587428571429	712.153272639843	1012.823417694969	497.614231805665	922.985602911727	1431.235893935197	328.929499605932	1010.227218594330	1356.340910268265	496.902368948391	917.371904398062	1433.739507246433	665.767382954529	914.590305703987	1492.772252195031	480.206991189079	928.999352714410	940.034250863132	628.665498093540	934.652786668870	956.745505787394	354.355309899296	985.180372118428	747.070214145152	602.378414769162	908.903605181292	635.660950945978	657.458115303394	992.016827304803	588.064130520427	578.891104970991	1000.179788458856	499.629758101021	584.243351712985	971.969671787310	740.519285222650	388.229634086306	893.713177422037	626.717734280785	315.635269003762	974.510016737253	542.621277671836	382.829093845773	967.470988859184	456.737737482114	380.012719203062	900.983244045726	399.489444073019	368.539604085351	766.128701948185	352.183149846348	311.174156024290	750.689384181995	224.538130612955	366.210945933417	976.191852192581	410.601052375394	591.307892612132	910.806091403333	304.817208825897	655.377732896040	955.245269959495	211.074721980102	592.078474547967	825.039839302147	45.289212591415	567.294260188161	997.522774376072	98.151794882237	599.054578018014	910.332159705979	37.541673202520	639.420349738474	1118.554177919017	40.997112783927	622.242875434619	559.983981032284	154.476297295475	394.586379649879	621.635225011804	111.035620679096	317.237762151478	724.162203840984	121.555685603807	342.446445224563	806.289988619171	31.649631086795	319.067405204669	906.439636313409	1074.066609382805	214.981743353449	1062.542424151889	863.604364117673	221.740011265476	817.032098260430	1099.307469654377	773.587963979863	885.246235822903	846.725576398211	784.743953531009	
90	56.599785714286	712.257298193116	1013.109758256123	499.950072524200	922.599721138525	1431.097721825400	330.208719456457	1010.027106547046	1356.935782233338	498.417426255241	917.104593334195	1434.567365024642	667.064262717328	914.176428351829	1493.173171126086	481.407408869005	929.109147641287	940.654212315909	631.310760934963	934.456219390291	956.725818048746	357.334684360032	983.864360156986	746.455040106696	605.211648137141	906.441441706034	635.596013987328	659.644200917398	989.218468245725	587.502701594247	581.045844745294	996.483280730259	499.036788816951	586.009382645547	976.109714097181	742.867468178898	390.913072707239	901.487044269039	627.707893728394	317.303482814738	984.140213556023	545.152692628903	384.735396310301	978.125746814925	458.413756784786	381.529906858374	910.380518327145	401.096884594254	369.697901561447	774.277766404456	357.788864949327	312.000968201191	755.634453659711	230.161990945670	366.099870827078	972.009851708018	410.162982424566	592.779264111389	905.919070412031	304.560272247098	656.343753939616	949.872815417373	210.773010863070	592.734537890851	818.798600806710	45.303221417679	567.405186153228	991.375997554909	98.005605676542	599.231314530379	904.070355997475	37.460252729287	639.535927099471	1112.330782078378	40.736111236707	622.394718847446	563.189342819391	168.972831751185	393.731409434099	622.469445489908	121.681729711140	316.720691256812	725.410793242821	125.950791134557	342.282676807609	801.175595010234	30.350592027427	319.547407188228	905.359141960518	1073.346619954009	218.304174440630	1049.466151574180	854.390117221642	222.214084197939	822.450372973672	1098.878190820989	777.428298521475	904.378997443402	850.437702006457	787.607095481446	
91	56.612142857143	712.148090022204	1013.349503413085	502.103839348083	922.126012765419	1430.788861304933	331.305879267911	1009.734672302630	1357.388506320961	499.771905638640	916.773595348024	1435.305879679346	668.217255079723	913.695166234005	1493.455788504678	482.398908730489	929.004274447317	941.147966024125	633.921125658558	934.096504127800	956.572271736904	360.244499931650	982.411082474373	745.832014768186	607.918155551647	903.869402374195	635.496803669541	661.724604304269	986.311662103716	586.911311887520	583.114556490635	992.671261418845	498.423643904665	587.711575977257	980.036777857194	745.282487656700	393.531758472710	909.096333958613	628.923022508226	318.915652201476	993.452823566486	548.005752840767	386.692700406121	988.641227727683	460.478644680355	383.213416403701	919.777640541892	402.988896778494	370.953712452690	782.710452164348	363.435169700631	312.680403174796	760.934509321718	235.930767958783	365.998589633177	967.729759599428	409.693606189192	594.193318246169	900.940545819532	304.287861796623	657.280826158438	944.426241165331	210.450469537844	593.374574730228	812.514053203175	45.286355362181	567.523400404537	985.173842115337	97.848400284894	599.384912247962	897.769372521560	37.371729095597	639.658776798226	1106.062657195198	40.533158908068	622.537462653547	567.127823289504	183.354335925165	392.551301247338	624.162981209818	132.450726250308	316.005465528114	727.160860932317	130.692854050683	342.174351033660	796.587479320435	29.104475512325	320.144516795446	904.077710735621	1072.504437779630	221.352082654879	1035.830972323453	845.943605159264	222.456381851154	828.042583512706	1098.558985370127	781.388224363434	923.561894340291	855.082796983180	790.410097558493	
92	56.624500000000	711.819184250266	1013.576226789943	504.077715738309	921.614068458771	1430.349852882158	332.236490877841	1009.371539856768	1357.700832793890	500.975877749021	916.412249345120	1435.976836427145	669.232679943899	913.201935161210	1493.641899579061	483.192943023787	928.680304439503	941.539402324660	636.475635774120	933.582411590327	956.346139250577	363.031932377024	980.857615668685	745.238925911675	610.468884465480	901.203885744685	635.377057227382	663.658167647336	983.336832119462	586.308985197944	585.073229708526	988.786186170683	497.805456004739	589.305114012928	983.656892990506	747.794502693646	396.112074264365	916.452393091105	630.406464634692	320.466970577244	1002.360979943047	551.196877987387	388.683202139814	998.933447273302	462.943234573757	384.991911476205	929.093877947443	405.182776590663	372.268695856346	791.315688670832	369.050887911026	313.226408977573	766.576516998535	241.731407310149	365.918667923849	963.393639671464	409.211703817871	595.510007024784	895.914753324025	304.025041037251	658.160571488271	938.935280950819	210.126636589121	593.975491481760	806.208959418876	45.253616671763	567.645962463689	978.939176778603	97.698964748385	599.515896768586	891.452692965509	37.289957758927	639.783185258993	1099.772123295181	40.391464522773	622.673386332055	571.732577738208	197.170506443362	391.115478685163	626.765845039319	142.996928536761	315.134155492007	729.530169518310	135.667650578871	342.117190807619	792.886395772994	28.038736355256	320.827915964567	902.474991163604	1071.598938275516	224.123577104158	1021.752438748080	838.392835823204	222.514894131580	833.863236133909	1098.362700796464	785.401131058442	942.719236140010	860.668087833599	793.097475181615	
93	56.636857142857	711.270469522451	1013.821252228665	505.887657722748	921.097263688552	1429.823265774668	333.020888922504	1008.958204888595	1357.880960684320	502.038706547707	916.056395842462	1436.599827486943	670.118903537961	912.743529316512	1493.753512988846	483.809910682748	928.141092149394	941.849088904653	638.937007572845	932.915640229646	956.112928229968	365.644119941513	979.217266190628	744.692740155712	612.832820091288	898.457162513801	635.247425556338	665.413328460126	980.315920848943	585.709716804111	586.893869067556	984.856656435653	497.192261684203	590.752407167478	986.894104490618	750.432796346429	398.668230466481	923.477849207501	632.193563844779	321.941396250933	1010.796959301212	554.731218342485	390.670215710025	1008.924185035467	465.811775433028	386.778170866154	938.264998195999	407.683721271970	373.587130501071	799.988172688518	374.538119780852	313.662143089036	772.583877864769	247.411314613756	365.867778395006	959.028454134441	408.730489122922	596.697855420151	890.869825225031	303.788057471884	658.957743432428	933.420392259543	209.814683224956	594.518339033697	799.899746524767	45.216154446787	567.769559362845	972.688805070757	97.569851662910	599.627208376966	885.136825570251	37.223766178057	639.904708447579	1093.474913471534	40.307503916858	622.804723167123	576.962392253542	209.897053901856	389.534859711032	630.345811870449	152.911326068117	314.168556924535	732.686065339583	140.706845449587	342.094266941326	790.531379914796	27.279619116885	321.529014204517	900.438990080189	1070.692825246159	226.614220268681	1007.372586808033	831.829234051730	222.437206767735	839.938108096715	1098.303972166455	789.396877482647	961.787316390471	867.195193580333	795.611917014678	
